<svg xmlns="http://www.w3.org/2000/svg" width="200" height="200" viewBox="0 0 200 200">
  <rect width="200" height="200" fill="#ffffff" rx="12"/>
  <rect x="20" y="20" width="60" height="60" fill="#1a1a1a" rx="4"/>
  <rect x="28" y="28" width="44" height="44" fill="#ffffff" rx="2"/>
  <rect x="36" y="36" width="28" height="28" fill="#1a1a1a" rx="2"/>
  <rect x="120" y="20" width="60" height="60" fill="#1a1a1a" rx="4"/>
  <rect x="128" y="28" width="44" height="44" fill="#ffffff" rx="2"/>
  <rect x="136" y="36" width="28" height="28" fill="#1a1a1a" rx="2"/>
  <rect x="20" y="120" width="60" height="60" fill="#1a1a1a" rx="4"/>
  <rect x="28" y="128" width="44" height="44" fill="#ffffff" rx="2"/>
  <rect x="36" y="136" width="28" height="28" fill="#1a1a1a" rx="2"/>
  <rect x="90" y="20" width="12" height="12" fill="#1a1a1a"/>
  <rect x="90" y="44" width="12" height="12" fill="#1a1a1a"/>
  <rect x="90" y="68" width="12" height="12" fill="#1a1a1a"/>
  <rect x="20" y="90" width="12" height="12" fill="#1a1a1a"/>
  <rect x="44" y="90" width="12" height="12" fill="#1a1a1a"/>
  <rect x="68" y="90" width="12" height="12" fill="#1a1a1a"/>
  <rect x="90" y="90" width="12" height="12" fill="#1a1a1a"/>
  <rect x="120" y="90" width="12" height="12" fill="#1a1a1a"/>
  <rect x="144" y="90" width="12" height="12" fill="#1a1a1a"/>
  <rect x="168" y="90" width="12" height="12" fill="#1a1a1a"/>
  <rect x="90" y="120" width="12" height="12" fill="#1a1a1a"/>
  <rect x="90" y="144" width="12" height="12" fill="#1a1a1a"/>
  <rect x="90" y="168" width="12" height="12" fill="#1a1a1a"/>
  <rect x="120" y="120" width="12" height="12" fill="#1a1a1a"/>
  <rect x="144" y="120" width="12" height="12" fill="#1a1a1a"/>
  <rect x="168" y="120" width="12" height="12" fill="#1a1a1a"/>
  <rect x="120" y="144" width="12" height="12" fill="#1a1a1a"/>
  <rect x="144" y="144" width="36" height="36" fill="#1a1a1a" rx="2"/>
  <rect x="152" y="152" width="20" height="20" fill="#ffffff" rx="1"/>
  <rect x="157" y="157" width="10" height="10" fill="#1a1a1a" rx="1"/>
  <rect x="120" y="168" width="12" height="12" fill="#1a1a1a"/>
</svg>
